<?xml version="1.0" encoding="UTF-8"?><svg id="Layer_3" xmlns="http://www.w3.org/2000/svg" viewBox="0 0 610 171"><defs><style>.cls-1,.cls-2{fill:#363e49;}.cls-3{fill:#6369f5;}.cls-2,.cls-4{fill-rule:evenodd;}.cls-4{fill:#fff;}</style></defs><g><path class="cls-1" d="M242.95,86.02c0-19.54,6.32-37.81,35.51-37.81s35.75,18.27,35.75,37.93c0,12.87-4.37,19.42-9.77,23.22l10.69,4.71v8.73h-33.22c-32.64,0-38.96-16.09-38.96-36.78Zm35.51,21.72c14.25,0,16.78-8.39,16.78-21.61s-1.95-22.64-16.78-22.64-16.67,9.88-16.67,22.53c0,13.33,2.87,21.72,16.67,21.72Z"/><path class="cls-1" d="M343.22,48.08h22.87l27.24,46.89V48.08h18.73V121.64h-21.95l-28.04-46.66v46.66h-18.85V48.08Z"/><path class="cls-1" d="M416.66,48.08h52.53v15.17h-34.02v16.55h31.49v14.37h-31.49v27.47h-18.51V48.08Z"/><path class="cls-1" d="M492.41,63.25h-18.51v-15.17h55.4v15.17h-18.51v58.39h-18.39V63.25Z"/><path class="cls-1" d="M525.97,100.49h17.36c0,5.52,2.53,9.19,11.49,9.19,7.13,0,9.65-2.53,9.65-5.52,0-9.08-37.58-2.64-37.58-23.33,0-10.46,7.7-18.85,27.01-18.85s26.32,7.24,26.32,21.15h-16.55c0-5.17-2.41-8.51-9.77-8.51-6.9,0-8.97,1.95-8.97,5.17,0,8.96,37.35,2.07,37.35,24.14,0,8.96-7.7,18.73-26.9,18.73-20.57,0-29.42-6.09-29.42-22.18Z"/><polygon class="cls-1" points="220.3 49.24 220.3 77.43 190.65 77.43 190.65 49.24 170.6 49.24 170.6 122.8 190.65 122.8 190.65 92.96 220.3 92.96 220.3 122.8 238.94 122.8 238.94 49.24 220.3 49.24"/></g><g><path class="cls-3" d="M143,85.75c0,31.73-25.72,57.46-57.46,57.46s-57.46-25.72-57.46-57.46c0-11.83,3.58-22.83,9.71-31.96,5.86-8.74,14.07-15.79,23.71-20.24,7.31-3.37,15.46-5.26,24.04-5.26,31.73,0,57.46,25.72,57.46,57.46Z"/><g><path class="cls-2" d="M98.73,86.99v-11.32c-.16-11.09-4.54-21.56-17.14-28.04l-3.26-1.68-3.26,1.68c-12.6,6.48-16.99,16.94-17.14,28.04v11.36l-4.26,4.83v27.13l12.27-14.12h7.1s-4.95,1.7-5.22,3.21c-.74,4.15,10.4,13.25,10.4,13.25,0,0,11.15-9.11,10.4-13.25-.27-1.51-5.22-3.21-5.22-3.21h7.36l12.27,14.12v-27.13l-4.3-4.87Z"/><g><path class="cls-4" d="M111.12,89.2v-11.32c-.16-11.09-4.54-21.56-17.14-28.04l-3.26-1.68-3.26,1.68c-12.6,6.48-16.99,16.94-17.14,28.04v11.36l-4.26,4.83v27.13l12.27-14.12h7.1s-4.95,1.7-5.22,3.21c-.74,4.15,10.4,13.25,10.4,13.25,0,0,11.15-9.11,10.4-13.25-.27-1.51-5.22-3.21-5.22-3.21h7.36l12.27,14.12v-27.13l-4.3-4.87Z"/><circle class="cls-1" cx="90.8" cy="68.7" r="9.03" transform="translate(-7.41 126.3) rotate(-67.5)"/></g></g></g></svg>