<svg xmlns="http://www.w3.org/2000/svg" version="1.1" xmlns:xlink="http://www.w3.org/1999/xlink" xmlns:svgjs="http://svgjs.dev/svgjs" width="1000" height="623" viewBox="0 0 1000 623"><g transform="matrix(1,0,0,1,-0.6060606060606233,0.2522267206477409)"><svg viewBox="0 0 396 247" data-background-color="#ffffff" preserveAspectRatio="xMidYMid meet" height="623" width="1000" xmlns="http://www.w3.org/2000/svg" xmlns:xlink="http://www.w3.org/1999/xlink"><g id="tight-bounds" transform="matrix(1,0,0,1,0.2400000000000091,-0.09999999999999432)"><svg viewBox="0 0 395.52 247.2" height="247.2" width="395.52"><g><svg></svg></g><g><svg viewBox="0 0 395.52 247.2" height="247.2" width="395.52"><g transform="matrix(1,0,0,1,39.55199999999999,86.01842296271857)"><svg viewBox="0 0 316.416 75.16315407456284" height="75.16315407456284" width="316.416"><g><svg viewBox="0 0 316.416 75.16315407456284" height="75.16315407456284" width="316.416"><g><svg viewBox="0 0 316.416 75.16315407456284" height="75.16315407456284" width="316.416"><g><svg viewBox="0 0 316.416 75.16315407456284" height="75.16315407456284" width="316.416"><g><svg viewBox="0 0 316.416 75.16315407456284" height="75.16315407456284" width="316.416"><g><svg viewBox="0 0 316.416 75.16315407456284" height="75.16315407456284" width="316.416"><g transform="matrix(1,0,0,1,0,0)"><svg width="316.416" viewBox="1.100000023841858 -35.5 151.52999877929688 36" height="75.16315407456284" data-palette-color="#6f55d6"><path d="M9.2 0.5Q5.2 0.5 3.15-1.78 1.1-4.05 1.1-8.3L1.1-8.3 1.1-10.3 6.3-10.3 6.3-7.9Q6.3-4.5 9.15-4.5L9.15-4.5Q10.55-4.5 11.28-5.33 12-6.15 12-8L12-8Q12-10.2 11-11.88 10-13.55 7.3-15.9L7.3-15.9Q3.9-18.9 2.55-21.33 1.2-23.75 1.2-26.8L1.2-26.8Q1.2-30.95 3.3-33.23 5.4-35.5 9.4-35.5L9.4-35.5Q13.35-35.5 15.38-33.23 17.4-30.95 17.4-26.7L17.4-26.7 17.4-25.25 12.2-25.25 12.2-27.05Q12.2-28.85 11.5-29.68 10.8-30.5 9.45-30.5L9.45-30.5Q6.7-30.5 6.7-27.15L6.7-27.15Q6.7-25.25 7.73-23.6 8.75-21.95 11.45-19.6L11.45-19.6Q14.9-16.6 16.2-14.15 17.5-11.7 17.5-8.4L17.5-8.4Q17.5-4.1 15.38-1.8 13.25 0.5 9.2 0.5L9.2 0.5ZM20.65 0L20.65-35 26.15-35 26.15-20.75 32.05-20.75 32.05-35 37.55-35 37.55 0 32.05 0 32.05-15.75 26.15-15.75 26.15 0 20.65 0ZM41.64 0L41.64-35 56.2-35 56.2-30 47.14-30 47.14-20.25 54.24-20.25 54.24-15.25 47.14-15.25 47.14 0 41.64 0ZM73.99 0.5Q69.99 0.5 67.94-1.78 65.89-4.05 65.89-8.3L65.89-8.3 65.89-10.3 71.09-10.3 71.09-7.9Q71.09-4.5 73.94-4.5L73.94-4.5Q75.34-4.5 76.07-5.33 76.79-6.15 76.79-8L76.79-8Q76.79-10.2 75.79-11.88 74.79-13.55 72.09-15.9L72.09-15.9Q68.69-18.9 67.34-21.33 65.99-23.75 65.99-26.8L65.99-26.8Q65.99-30.95 68.09-33.23 70.19-35.5 74.19-35.5L74.19-35.5Q78.14-35.5 80.17-33.23 82.19-30.95 82.19-26.7L82.19-26.7 82.19-25.25 76.99-25.25 76.99-27.05Q76.99-28.85 76.29-29.68 75.59-30.5 74.24-30.5L74.24-30.5Q71.49-30.5 71.49-27.15L71.49-27.15Q71.49-25.25 72.52-23.6 73.54-21.95 76.24-19.6L76.24-19.6Q79.69-16.6 80.99-14.15 82.29-11.7 82.29-8.4L82.29-8.4Q82.29-4.1 80.17-1.8 78.04 0.5 73.99 0.5L73.99 0.5ZM83.84 0L89.54-35 96.99-35 102.69 0 97.19 0 96.19-6.95 96.19-6.85 89.94-6.85 88.94 0 83.84 0ZM90.59-11.6L95.54-11.6 93.09-28.9 92.99-28.9 90.59-11.6ZM105.34 0L105.34-35 110.84-35 110.84-20.25 117.84-35 123.34-35 116.79-22.15 123.44 0 117.69 0 113.04-15.6 110.84-11.15 110.84 0 105.34 0ZM126.03 0L126.03-35 131.53-35 131.53 0 126.03 0ZM135.63 0L135.63-35 143.93-35Q148.18-35 150.13-33.02 152.08-31.05 152.08-26.95L152.08-26.95 152.08-25.55Q152.08-22.85 151.21-21.15 150.33-19.45 148.53-18.7L148.53-18.7 148.53-18.6Q152.63-17.2 152.63-11.3L152.63-11.3 152.63-8.3Q152.63-4.25 150.51-2.13 148.38 0 144.28 0L144.28 0 135.63 0ZM141.13-20.75L143.28-20.75Q144.93-20.75 145.76-21.6 146.58-22.45 146.58-24.45L146.58-24.45 146.58-26.4Q146.58-28.3 145.91-29.15 145.23-30 143.78-30L143.78-30 141.13-30 141.13-20.75ZM141.13-5L144.28-5Q145.73-5 146.43-5.78 147.13-6.55 147.13-8.45L147.13-8.45 147.13-11.5Q147.13-13.9 146.31-14.83 145.48-15.75 143.58-15.75L143.58-15.75 141.13-15.75 141.13-5Z" opacity="1" transform="matrix(1,0,0,1,0,0)" fill="#6f55d6" class="undefined-text-0" data-fill-palette-color="primary" id="text-0"></path></svg></g></svg></g></svg></g></svg></g></svg></g></svg></g></svg></g><g mask="url(#24d66aa6-ecbf-4f8c-ab84-6704635fa723)"><g transform="matrix(3.4055555555555554, 0, 0, 3.4055555555555554, 34.29333333333332, 1)"><svg xmlns="http://www.w3.org/2000/svg" xmlns:xlink="http://www.w3.org/1999/xlink" version="1.1" x="0" y="0" viewBox="2 13.999998092651367 96 72" enable-background="new 0 0 100 100" xml:space="preserve" height="72" width="96" class="icon-none" data-fill-palette-color="accent" id="none"><path d="M65.9 62.4H7.6c-0.5 0-1-0.4-1-1V19.7c0-0.5 0.4-1 1-1H74c0.5 0 1 0.4 1 1v16.9c0.4 0 0.9-0.1 1.3-0.1h0.9 0.9c0.5 0 1 0 1.5 0.1v-17c0-3.1-2.5-5.6-5.6-5.6H7.6c-3.1 0-5.6 2.5-5.6 5.6v41.7c0 0 0 0 0 0.1V69c0 0 0 0.1 0 0.1v0.4c0 0 0 0.1 0 0.1v0.1h0c0.1 2.7 2.3 4.8 5 4.8h25.2c0 1.1-0.7 6.2-8.2 7.1h0.2c-1.2 0-2.2 1-2.2 2.2 0 1.2 1 2.2 2.2 2.2H52v-5.9c0-0.2 0-0.4 0-0.6-2.3-1.8-2.5-4.2-2.6-5h4.6c0.3-0.4 0.6-0.7 1-1 4-3.3 8.2-5.8 10.8-7.2V62.4zM40.8 71.7c-1.5 0-2.8-1.2-2.8-2.8 0-1.5 1.2-2.8 2.8-2.8s2.8 1.2 2.8 2.8C43.6 70.4 42.3 71.7 40.8 71.7zM96.5 76.9c1 0.8 1.5 2 1.5 3.2v5.9H77.2 56.4v-5.9c0-1.2 0.6-2.4 1.5-3.2 5.3-4.4 11-7.2 12.2-7.8 0.1-0.1 0.2-0.2 0.2-0.3v-8.3c-1-0.7-1.7-1.9-1.7-3.2v-8.6c0-4.3 3.5-7.7 7.7-7.7h0.9 0.9c4.3 0 7.7 3.5 7.7 7.7v8.6c0 1.3-0.7 2.5-1.7 3.2v8.3c0 0.1 0.1 0.3 0.2 0.3C85.5 69.6 91.2 72.5 96.5 76.9z" fill="#6f55d6" data-fill-palette-color="accent"></path></svg></g></g></svg></g><defs><mask id="f1d6f5a0-114b-42e4-b1f6-8c0a686b02b3"><rect width="640" height="400" fill="white"></rect><rect width="348.05760000000004" height="110.65158759717583" fill="black" x="145.97119999999998" y="144.6742062014121" id="transform-me" transform="matrix(1,0,0,1,-122.24000000000001,-76.4)"></rect></mask><mask id="2c9896f9-e09c-4a1a-9642-bf87bb42e293"><rect width="640" height="400" fill="white"></rect><rect width="348.05760000000004" height="110.65158759717583" fill="black" x="145.97119999999998" y="144.6742062014121" id="transform-me" transform="matrix(1,0,0,1,-122.24000000000001,-76.4)"></rect></mask><mask id="df7c82b6-e2bf-400c-91f1-bf76a4fbf773"><rect width="640" height="400" fill="white"></rect><rect width="348.05760000000004" height="110.65158759717583" fill="black" x="145.97119999999998" y="144.6742062014121" id="transform-me" transform="matrix(1,0,0,1,-122.24000000000001,-76.4)"></rect></mask><mask id="ea5f5047-3b25-40d2-8b7f-86e3dab556c7"><rect width="640" height="400" fill="white"></rect><rect width="348.05760000000004" height="110.65158759717583" fill="black" x="145.97119999999998" y="144.6742062014121" id="transform-me" transform="matrix(1,0,0,1,-122.24000000000001,-76.4)"></rect></mask><mask id="80e7b19a-6a2d-459b-a656-f1f9175a447b"><rect width="640" height="400" fill="white"></rect><rect width="348.05760000000004" height="110.65158759717583" fill="black" x="145.97119999999998" y="144.6742062014121" id="transform-me" transform="matrix(1,0,0,1,-122.24000000000001,-76.4)"></rect></mask><mask id="6885cc52-afe0-477e-8007-6747612566f9"><rect width="640" height="400" fill="white"></rect><rect width="348.05760000000004" height="110.65158759717583" fill="black" x="145.97119999999998" y="144.6742062014121" id="transform-me" transform="matrix(1,0,0,1,-122.24000000000001,-76.4)"></rect></mask><mask id="280fc4e5-6a59-418d-a36e-1b0047f6fece"><rect width="640" height="400" fill="white"></rect><rect width="348.05760000000004" height="110.65158759717583" fill="black" x="145.97119999999998" y="144.6742062014121" id="transform-me" transform="matrix(1,0,0,1,-122.24000000000001,-76.4)"></rect></mask><mask id="cd3f36a4-1e93-4f36-b322-34f47987b615"><rect width="640" height="400" fill="white"></rect><rect width="348.05760000000004" height="110.65158759717583" fill="black" x="145.97119999999998" y="144.6742062014121" id="transform-me" transform="matrix(1,0,0,1,-122.24000000000001,-76.4)"></rect></mask><mask id="70ca953d-d404-4cd1-a44d-3c7e13c19f0b"><rect width="640" height="400" fill="white"></rect><rect width="348.05760000000004" height="110.65158759717583" fill="black" x="145.97119999999998" y="144.6742062014121" id="transform-me" transform="matrix(1,0,0,1,-122.24000000000001,-76.4)"></rect></mask><mask id="24d66aa6-ecbf-4f8c-ab84-6704635fa723"><rect width="640" height="400" fill="white"></rect><rect width="348.05760000000004" height="110.65158759717583" fill="black" x="145.97119999999998" y="144.6742062014121" id="transform-me" transform="matrix(1,0,0,1,-122.24000000000001,-76.4)"></rect></mask></defs></svg><rect width="395.52" height="247.2" fill="none" stroke="none" visibility="hidden"></rect></g></svg></g></svg>